<svg xmlns="http://www.w3.org/2000/svg" xmlns:xlink="http://www.w3.org/1999/xlink" version="1.1" width="1000" height="1000" viewBox="0 0 1000 1000" xml:space="preserve">
<desc>Created with Fabric.js 3.5.0</desc>
<defs>
</defs>
<rect x="0" y="0" width="100%" height="100%" fill="rgba(255,255,255,0)"/>
<g transform="matrix(2.0405 -1.989 1.989 2.0405 499.9932 582.4635)" id="65686">
<g style="" vector-effect="non-scaling-stroke">
		<g transform="matrix(0.5625 0 0 0.5625 21.6056 -21.9977)" id="SvgjsG1008">
<path style="stroke: none; stroke-width: 1; stroke-dasharray: none; stroke-linecap: butt; stroke-dashoffset: 0; stroke-linejoin: miter; stroke-miterlimit: 4; is-custom-font: none; font-file-url: none; fill: rgb(140,140,140); fill-rule: nonzero; opacity: 1;" transform=" translate(-294.41, -216.893)" d="M 180.353 72.358 l -27.568 27.568 c -7.755 7.755 -20.328 7.755 -28.083 0 l 0 0 c -7.755 -7.755 -7.755 -20.328 0 -28.083 l 27.568 -27.568 c 3.875 -3.875 10.156 -3.875 14.031 0 l 14.052 14.052 C 184.228 62.201 184.228 68.483 180.353 72.358 z M 257.081 89.3 l -27.568 27.568 c -7.755 7.755 -20.328 7.755 -28.083 0 l 0 0 c -7.755 -7.755 -7.755 -20.328 0 -28.083 l 27.568 -27.568 c 3.875 -3.875 10.156 -3.875 14.031 0 l 14.052 14.052 C 260.956 79.143 260.956 85.425 257.081 89.3 z M 438.945 330.95 l -27.568 27.568 c -7.755 7.755 -7.755 20.328 0 28.083 l 0 0 c 7.755 7.755 20.328 7.755 28.083 0 l 27.568 -27.568 c 3.875 -3.875 3.875 -10.156 0 -14.031 l -14.052 -14.052 C 449.101 327.075 442.819 327.075 438.945 330.95 z M 422.003 254.221 l -27.568 27.568 c -7.755 7.755 -7.755 20.328 0 28.083 h 0 c 7.755 7.755 20.328 7.755 28.083 0 l 27.568 -27.568 c 3.875 -3.875 3.875 -10.156 0 -14.031 l -14.052 -14.052 C 432.16 250.347 425.878 250.347 422.003 254.221 z" stroke-linecap="round"/>
</g>
		<g transform="matrix(0.5625 0 0 0.5625 -19.6386 19.2366)" id="SvgjsG1008">
<path style="stroke: none; stroke-width: 1; stroke-dasharray: none; stroke-linecap: butt; stroke-dashoffset: 0; stroke-linejoin: miter; stroke-miterlimit: 4; is-custom-font: none; font-file-url: none; fill: rgb(112,198,236); fill-rule: nonzero; opacity: 1;" transform=" translate(-221.0869, -290.1985)" d="M 55.374 74.815 l 318.036 49.052 L 256.473 240.804 L 10.287 106.216 c -5.885 -3.217 -7.028 -11.185 -2.286 -15.927 l 0 0 C 20.41 77.88 38.002 72.114 55.374 74.815 z M 421.003 503.29 L 421.003 503.29 c -4.743 4.743 -12.71 3.599 -15.927 -2.285 L 270.452 254.782 l 116.937 -116.937 l 49.088 318.072 C 439.141 473.253 433.411 490.882 421.003 503.29 z M 187.194 479.493 l -6.138 6.138 c -4.016 4.016 -10.79 2.89 -13.291 -2.209 l -46.037 -93.851 l -93.874 -46.06 c -5.098 -2.501 -6.223 -9.275 -2.208 -13.29 l 6.139 -6.139 c 8.582 -8.582 20.492 -12.977 32.592 -12.025 l 123.165 9.684 l 1.703 -1.703 l 0.157 1.86 l 1.838 0.134 l -1.703 1.703 l 9.683 123.166 C 200.171 459.001 195.777 470.911 187.194 479.493 z" stroke-linecap="round"/>
</g>
		<g transform="matrix(0.5625 0 0 0.5625 25.3073 -25.6999)" id="SvgjsG1008">
<path style="stroke: none; stroke-width: 1; stroke-dasharray: none; stroke-linecap: butt; stroke-dashoffset: 0; stroke-linejoin: miter; stroke-miterlimit: 4; is-custom-font: none; font-file-url: none; fill: rgb(242,242,242); fill-rule: nonzero; opacity: 1;" transform=" translate(-300.9907, -210.3114)" d="M 212.403 357.491 c -22.52 20.416 -61.984 47.599 -85.075 54.406 l -11.122 3.303 c -4.342 1.289 -10.248 -0.879 -14.737 -5.368 l 0 0 c -4.489 -4.489 -6.657 -10.395 -5.368 -14.737 l 3.303 -11.122 c 6.807 -23.091 33.991 -62.555 54.406 -85.075 L 382.827 50.959 c 30.22 -33.492 86.717 -61.91 113.072 -35.554 s -2.064 82.852 -35.556 113.072 L 212.403 357.491 z" stroke-linecap="round"/>
</g>
		<g transform="matrix(0.5625 0 0 0.5625 -0.0001 -0.0004)" id="SvgjsG1008">
<path style="stroke: none; stroke-width: 1; stroke-dasharray: none; stroke-linecap: butt; stroke-dashoffset: 0; stroke-linejoin: miter; stroke-miterlimit: 4; is-custom-font: none; font-file-url: none; fill: rgb(0,0,0); fill-rule: nonzero; opacity: 1;" transform=" translate(-255.9999, -255.9994)" d="M 456.589 327.53 c -5.949 -5.938 -15.618 -5.941 -21.556 -0.003 l -11.438 11.407 l -3.158 -20.731 c 2.101 -1.139 4.06 -2.544 5.752 -4.237 l 27.627 -27.52 c 5.912 -5.912 6.033 -15.528 0.008 -21.553 l -14.004 -14.058 c -5.894 -5.977 -15.568 -6.022 -21.582 -0.086 l -7.013 6.987 l -10.182 -66.842 l 63.103 -58.066 c 22.415 -20.148 46.936 -56.275 47.811 -87.984 c 0.745 -27.172 -17.321 -45.325 -44.536 -44.703 c -31.709 0.752 -67.927 25.138 -88.119 47.434 l -58.312 62.892 l -66.799 -10.437 l 6.991 -6.967 c 5.933 -5.928 5.967 -15.594 0.008 -21.553 l -14.004 -14.058 c -5.891 -5.975 -15.563 -6.014 -21.582 -0.086 l -27.622 27.518 c -1.723 1.722 -3.116 3.642 -4.241 5.703 l -20.669 -3.229 l 11.385 -11.353 c 5.959 -5.959 5.985 -15.633 0.07 -21.548 l -14.066 -14.17 c -5.988 -5.91 -15.675 -5.891 -21.579 0.018 l -27.627 27.52 c -2.923 2.924 -4.984 6.544 -6.182 10.473 l -58.569 -9.151 c -18.76 -2.83 -38.501 3.52 -51.963 16.912 c -7.233 7.244 -5.57 19.384 3.444 24.386 l 207.408 113.913 l -65.607 70.76 c -4.546 4.997 -9.368 10.769 -14.207 16.945 l -70.861 -5.699 c -13.743 -1.096 -27.13 3.853 -36.804 13.527 l -6.201 6.149 c -6.557 6.551 -4.758 17.693 3.598 21.827 l 68.856 33.951 c -0.033 0.107 -0.08 0.226 -0.112 0.333 l -3.325 11.116 c -1.453 4.862 -0.151 10.705 3.284 15.862 l -9.235 9.2 c -2.088 2.077 -2.093 5.454 -0.016 7.539 c 2.075 2.086 5.454 2.095 7.539 0.016 l 9.24 -9.206 c 4.624 3.111 10.509 4.958 15.87 3.369 c 3.046 -0.901 9.668 -2.841 11.487 -3.4 l 33.651 68.911 c 4.076 8.501 15.221 10.253 21.855 3.705 l 6.131 -6.131 c 9.698 -9.698 14.673 -23.089 13.65 -36.754 l -5.448 -70.831 c 6.214 -4.829 12.022 -9.642 17.049 -14.182 c 0.01 -0.01 0.023 -0.023 0.036 -0.034 l 70.982 -65.317 l 113.123 207.798 c 4.949 9.155 17.341 10.741 24.404 3.58 c 13.569 -13.569 19.929 -32.98 17.016 -51.917 l -8.921 -58.564 c 3.967 -1.175 7.619 -3.231 10.559 -6.169 l 27.624 -27.518 c 5.959 -5.959 5.959 -15.657 0.008 -21.608 L 456.589 327.53 z M 425.747 258.322 c 1.812 -1.786 4.72 -1.783 6.501 0.018 l 14.03 14.084 c 1.817 1.817 1.817 4.665 0.008 6.475 l -27.63 27.523 c -0.004 0.004 -0.008 0.005 -0.011 0.009 l -5.426 -35.623 L 425.747 258.322 z M 233.11 64.94 c 1.809 -1.783 4.72 -1.786 6.503 0.018 l 14.03 14.084 c 1.814 1.82 1.749 4.736 0.005 6.475 L 241.129 97.99 l -35.611 -5.563 L 233.11 64.94 z M 128.787 75.372 l 27.627 -27.52 c 1.794 -1.783 4.736 -1.778 6.519 -0.013 l 14.04 14.144 c 1.784 1.784 1.724 4.699 -0.049 6.477 l -16.906 16.859 l -34.291 -5.358 C 126.441 78.263 127.453 76.706 128.787 75.372 z M 13.14 101.109 c -2.781 -1.542 -3.281 -5.281 -1.067 -7.5 C 23.168 82.573 39.595 77.4 54.89 79.686 l 257.361 40.207 l -89.385 96.406 L 13.14 101.109 z M 30.033 338.305 c -1.787 -0.882 -2.201 -3.305 -0.797 -4.71 l 6.201 -6.149 c 7.48 -7.479 17.841 -11.288 28.431 -10.453 l 64.073 5.152 c -12.134 16.585 -23.504 34.838 -29.991 49.646 L 30.033 338.305 z M 193.554 447.186 c 0.789 10.554 -3.059 20.908 -10.557 28.408 l -6.105 6.105 c -1.403 1.385 -3.825 1.133 -4.743 -0.784 l -33.213 -68.015 c 14.826 -6.429 33.094 -17.712 49.705 -29.766 L 193.554 447.186 z M 208.622 353.467 c -53.78 48.562 -93.523 56.003 -94.227 56.355 c -1.162 0.344 -3.015 0 -5.019 -0.946 l 31.446 -31.328 c 2.088 -2.077 2.093 -5.454 0.016 -7.539 c -2.077 -2.088 -5.457 -2.093 -7.539 -0.016 l -31.442 31.324 c -0.927 -1.99 -1.258 -3.83 -0.91 -4.996 c 0.27 -0.533 7.927 -40.394 56.694 -93.992 l 229.524 -247.55 c 19.348 -21.363 53.216 -43.328 80.512 -43.976 c 20.917 -0.54 34.204 12.641 33.62 33.748 c -0.75 27.294 -22.845 61.08 -44.325 80.39 L 208.622 353.467 z M 416.76 499.832 c -2.146 2.126 -5.892 1.791 -7.456 -1.104 L 294.895 288.572 l 96.687 -88.97 l 39.226 257.486 C 433.108 472.037 428.48 488.112 416.76 499.832 z M 463.079 355.678 l -27.624 27.515 c -1.33 1.33 -2.92 2.343 -4.652 3.054 l -5.216 -34.241 l 16.981 -16.934 c 1.791 -1.781 4.699 -1.783 6.475 -0.008 l 14.03 14.084 C 464.907 350.984 464.85 353.907 463.079 355.678 z" stroke-linecap="round"/>
</g>
		<g transform="matrix(0.5625 0 0 0.5625 104.3699 -104.3602)" id="SvgjsG1008">
<path style="stroke: none; stroke-width: 1; stroke-dasharray: none; stroke-linecap: butt; stroke-dashoffset: 0; stroke-linejoin: miter; stroke-miterlimit: 4; is-custom-font: none; font-file-url: none; fill: rgb(0,0,0); fill-rule: nonzero; opacity: 1;" transform=" translate(-441.5464, -70.4708)" d="M 454.92 57.151 c -8.992 -9.034 -23.54 -13.035 -33.922 -3.187 c -2.137 2.025 -2.226 5.399 -0.2 7.537 c 2.025 2.143 5.405 2.228 7.537 0.2 c 6.521 -6.193 15.034 -1.041 19.031 2.973 c 3.996 4.012 9.099 12.533 2.892 19.025 c -2.033 2.13 -1.958 5.504 0.172 7.539 c 2.135 2.039 5.507 1.951 7.539 -0.172 C 467.848 80.73 463.915 66.179 454.92 57.151 z" stroke-linecap="round"/>
</g>
</g>
</g>
</svg>