<?xml version="1.0" encoding="UTF-8"?>
<svg xmlns="http://www.w3.org/2000/svg" xmlns:xlink="http://www.w3.org/1999/xlink" width="48px" height="48px" viewBox="0 0 48 48" version="1.1">
<g id="surface1">
<path style=" stroke:none;fill-rule:nonzero;fill:rgb(29.411766%,35.294119%,65.490198%);fill-opacity:1;" d="M 48 24 C 48 10.746094 37.253906 0 24 0 C 10.746094 0 0 10.746094 0 24 C 0 37.253906 10.746094 48 24 48 C 37.253906 48 48 37.253906 48 24 Z M 48 24 "/>
<path style=" stroke:none;fill-rule:nonzero;fill:rgb(87.058824%,87.058824%,87.450981%);fill-opacity:1;" d="M 22.5 37.769531 L 14.871094 42.445312 L 14.871094 45.011719 L 24 42.878906 L 24 39.023438 Z M 22.5 37.769531 "/>
<path style=" stroke:none;fill-rule:nonzero;fill:rgb(87.058824%,87.058824%,87.450981%);fill-opacity:1;" d="M 25.5 37.769531 L 33.128906 42.445312 L 33.128906 45.011719 L 24 42.878906 L 24 39.023438 Z M 25.5 37.769531 "/>
<path style=" stroke:none;fill-rule:nonzero;fill:rgb(94.509804%,95.294118%,96.862745%);fill-opacity:1;" d="M 17.570312 20.257812 L 15.691406 20.257812 C 15.476562 20.257812 15.296875 20.078125 15.296875 19.859375 L 15.296875 15.703125 L 17.964844 15.703125 L 17.964844 19.859375 C 17.964844 20.078125 17.785156 20.257812 17.570312 20.257812 Z M 17.570312 20.257812 "/>
<path style=" stroke:none;fill-rule:nonzero;fill:rgb(94.509804%,95.294118%,96.862745%);fill-opacity:1;" d="M 11.808594 23.71875 L 9.929688 23.71875 C 9.714844 23.71875 9.535156 23.539062 9.535156 23.320312 L 9.535156 19.164062 L 12.203125 19.164062 L 12.203125 23.320312 C 12.203125 23.539062 12.03125 23.71875 11.808594 23.71875 Z M 11.808594 23.71875 "/>
<path style=" stroke:none;fill-rule:nonzero;fill:rgb(94.509804%,95.294118%,96.862745%);fill-opacity:1;" d="M 30.429688 20.257812 L 32.308594 20.257812 C 32.523438 20.257812 32.703125 20.078125 32.703125 19.859375 L 32.703125 15.703125 L 30.035156 15.703125 L 30.035156 19.859375 C 30.035156 20.078125 30.214844 20.257812 30.429688 20.257812 Z M 30.429688 20.257812 "/>
<path style=" stroke:none;fill-rule:nonzero;fill:rgb(94.509804%,95.294118%,96.862745%);fill-opacity:1;" d="M 36.191406 23.71875 L 38.070312 23.71875 C 38.285156 23.71875 38.464844 23.539062 38.464844 23.320312 L 38.464844 19.164062 L 35.796875 19.164062 L 35.796875 23.320312 C 35.796875 23.539062 35.96875 23.71875 36.191406 23.71875 Z M 36.191406 23.71875 "/>
<path style=" stroke:none;fill-rule:nonzero;fill:rgb(87.058824%,87.058824%,87.450981%);fill-opacity:1;" d="M 21.359375 15.285156 L 4.140625 27.113281 L 4.140625 30.207031 L 21.90625 26.027344 Z M 21.359375 15.285156 "/>
<path style=" stroke:none;fill-rule:nonzero;fill:rgb(87.058824%,87.058824%,87.450981%);fill-opacity:1;" d="M 26.640625 15.285156 L 43.859375 27.113281 L 43.859375 30.207031 L 26.09375 26.027344 Z M 26.640625 15.285156 "/>
<path style=" stroke:none;fill-rule:nonzero;fill:rgb(94.509804%,95.294118%,96.862745%);fill-opacity:1;" d="M 24 1.074219 C 21.898438 1.074219 20.679688 6.976562 20.679688 6.976562 C 20.679688 6.976562 20.679688 27.273438 20.679688 30.347656 C 20.679688 38.9375 23.140625 42.878906 24 42.878906 C 24.894531 42.878906 27.320312 38.816406 27.320312 30.347656 C 27.320312 27.273438 27.320312 6.976562 27.320312 6.976562 C 27.320312 6.976562 26.101562 1.074219 24 1.074219 Z M 24 1.074219 "/>
<path style=" stroke:none;fill-rule:nonzero;fill:rgb(43.137255%,69.411767%,88.235295%);fill-opacity:1;" d="M 24 5.6875 C 25.121094 5.6875 26.101562 6.148438 26.695312 6.847656 C 26.566406 5.480469 25.40625 4.402344 24 4.402344 C 22.59375 4.402344 21.433594 5.480469 21.304688 6.847656 C 21.898438 6.148438 22.878906 5.6875 24 5.6875 Z M 24 5.6875 "/>
<path style=" stroke:none;fill-rule:nonzero;fill:rgb(74.117649%,74.117649%,74.509805%);fill-opacity:1;" d="M 24 34.808594 C 23.679688 34.808594 23.425781 35.0625 23.425781 35.382812 L 23.425781 43.9375 C 23.425781 44.257812 23.679688 44.511719 24 44.511719 C 24.320312 44.511719 24.574219 44.257812 24.574219 43.9375 L 24.574219 35.382812 C 24.574219 35.070312 24.320312 34.808594 24 34.808594 Z M 24 34.808594 "/>
</g>
</svg>
